<svg xmlns="http://www.w3.org/2000/svg" viewBox="0 0 64 64">
  <!-- Blade -->
  <path d="M12 52 L48 8 C50 5 54 5 55 8 L52 14 L16 54 C14 56 11 55 12 52Z" fill="#c0c8d4" stroke="#8899aa" stroke-width="1"/>
  <!-- Blade highlight -->
  <path d="M14 50 L48 10 C49 8 51 8 51 10 L17 52 C15 53 13 52 14 50Z" fill="#dce4ee" opacity="0.6"/>
  <!-- Blade edge shine -->
  <path d="M48 8 L52 14 L50 11Z" fill="#ffffff" opacity="0.5"/>
  <!-- Guard -->
  <rect x="8" y="49" width="16" height="4" rx="2" transform="rotate(-45 16 51)" fill="#b8860b"/>
  <!-- Handle -->
  <path d="M8 56 L3 61 C2 62 2 64 4 63 L12 58 C13 57 10 54 8 56Z" fill="#5c3317"/>
  <!-- Handle wrap lines -->
  <path d="M6 59 L9 56" stroke="#3d1f0a" stroke-width="0.8" opacity="0.5"/>
  <path d="M5 60.5 L8 57.5" stroke="#3d1f0a" stroke-width="0.8" opacity="0.5"/>
  <!-- Slash effect -->
  <path d="M30 20 L56 4" stroke="#ffd700" stroke-width="2" stroke-linecap="round" opacity="0.7"/>
  <path d="M32 22 L58 6" stroke="#ffaa00" stroke-width="1" stroke-linecap="round" opacity="0.4"/>
</svg>
